<?xml version="1.0" encoding="UTF-8"?>
<svg id="Layer_1" xmlns="http://www.w3.org/2000/svg" version="1.1" viewBox="0 0 40 40">
  <!-- Generator: Adobe Illustrator 30.0.0, SVG Export Plug-In . SVG Version: 2.1.1 Build 123)  -->
  <defs>
    <style>
      .st0 {
        fill: #d92d20;
      }

      .st1 {
        fill: #fff;
      }

      .st2 {
        fill: none;
        stroke: #fff;
        stroke-width: 1.5px;
      }
    </style>
  </defs>
  <path class="st2" d="M11,.8h16c.1,0,.2,0,.3.1l10.8,10.8c0,0,.1.2.1.3v24c0,1.8-1.5,3.2-3.2,3.2H11c-1.8,0-3.2-1.5-3.2-3.2V4c0-1.8,1.5-3.2,3.2-3.2Z"/>
  <path class="st2" d="M27,.5v7.5c0,2.2,1.8,4,4,4h7.5"/>
  <path class="st0" d="M1,20c0-1.1.9-2,2-2h22c1.1,0,2,.9,2,2v12c0,1.1-.9,2-2,2H3c-1.1,0-2-.9-2-2v-12Z"/>
  <path class="st1" d="M4.8,30v-7.3h2.9c.6,0,1,.1,1.4.3.4.2.7.5.9.9.2.4.3.8.3,1.3s-.1.9-.3,1.3c-.2.4-.5.7-.9.9-.4.2-.9.3-1.4.3h-1.8v-1.2h1.6c.3,0,.5,0,.7-.2.2-.1.3-.2.4-.4,0-.2.1-.4.1-.6s0-.5-.1-.6c0-.2-.2-.3-.4-.4-.2-.1-.4-.2-.7-.2h-1v6h-1.5ZM13.9,30h-2.6v-7.3h2.6c.7,0,1.4.1,1.9.4.5.3.9.7,1.2,1.2.3.5.4,1.2.4,1.9s-.1,1.4-.4,2c-.3.5-.7,1-1.2,1.3-.5.3-1.2.4-1.9.4ZM12.8,28.7h1c.5,0,.8,0,1.1-.2.3-.2.5-.4.7-.8.2-.3.2-.8.2-1.3s0-1-.2-1.3c-.2-.3-.4-.6-.7-.8-.3-.2-.7-.2-1.1-.2h-1v4.6ZM18.6,30v-7.3h4.8v1.3h-3.3v1.7h3v1.3h-3v3h-1.5Z"/>
</svg>