<?xml version="1.0" encoding="UTF-8"?>
<svg id="Layer_1" xmlns="http://www.w3.org/2000/svg" xmlns:xlink="http://www.w3.org/1999/xlink" version="1.1" viewBox="0 0 647.9 161.7">
  <!-- Generator: Adobe Illustrator 30.0.0, SVG Export Plug-In . SVG Version: 2.1.1 Build 123)  -->
  <defs>
    <style>
      .st0 {
        fill: url(#radial-gradient);
      }

      .st1 {
        fill: #fff;
      }

      .st2 {
        fill: none;
        stroke: #1271b6;
        stroke-miterlimit: 10;
        stroke-width: 3px;
      }
    </style>
    <radialGradient id="radial-gradient" cx="11.8" cy="9.2" fx="11.8" fy="9.2" r="124.2" gradientUnits="userSpaceOnUse">
      <stop offset="0" stop-color="#fff"/>
      <stop offset="1" stop-color="#1271b6"/>
    </radialGradient>
  </defs>
  <g>
    <path class="st1" d="M251.2,93.8h-11.7c-5.7,12.3-14.8,31.6-17.1,38.3h-.2c-1.9-6.4-10.2-26-15.3-38.3h-12.4v50.1h8.1v-39.1h.2c5.2,14,10.7,26.6,16,39.1h5.4c5.6-12.5,11.4-25.1,16.9-39.1h0v39.1h10.1v-50.1h0Z"/>
    <path class="st1" d="M261.8,143.9h9.5v-35.8h-9.5v35.8ZM266.6,103.4c3.5,0,5.7-2.9,5.7-6s-2.6-5.5-5.9-5.5-5.5,2.8-5.5,5.5,2.3,6,5.6,6"/>
    <rect class="st1" x="281" y="91.3" width="9.5" height="52.6"/>
    <path class="st1" d="M311,143.9v-31h8.5v-4.9h-8.5v-5.8c0-4.6,3.1-5.3,4.6-5.3s2.8.2,4.1.7l1.6-4.8c-2.5-1.3-5.2-1.6-7.5-1.6-5.3,0-12.4,3.4-12.4,12.7v4.1h-5.7v4.9h5.7v31h9.6,0Z"/>
    <path class="st1" d="M339.9,144.8c11.3,0,18.8-8.1,18.8-19.2s-9.1-18.3-18.8-18.3-18.7,6.7-18.7,18.3,7.6,19.2,18.7,19.2M339.9,139.4c-6.8,0-8.6-7.6-8.6-13.9s2.1-13,8.6-13,8.7,7.1,8.7,13-1.8,13.9-8.7,13.9"/>
    <path class="st1" d="M373.7,108.1h-9.4v35.8h9.5v-17.7c0-7.8,3.2-10.4,6.5-10.4s2.9.4,4.6,1.2l3.6-6.6c-2-2-4.3-3.2-6.4-3.2s-5,2.8-6.1,4.4l-1.9,2.8h0v-6.3h-.4Z"/>
    <path class="st1" d="M407.6,113c5.7,0,8.6,5.8,8.6,12s-2.7,14.1-9.1,14.1-8.2-6.7-8.2-13.7,2.5-12.4,8.6-12.4M416.3,143.9h9.5v-52.6h-9.5v21h0c-2.1-3.1-6.3-5-11-5-9.6,0-16.3,9-16.3,18.3s6.2,19.2,15.6,19.2,9.3-3,11.6-6h0v5.1h0Z"/>
    <polygon class="st1" points="490.3 93.9 480.2 93.9 480.2 113 459.2 113 459.2 93.8 449.1 93.8 449.1 143.9 459.2 143.9 459.2 119.8 480.2 119.8 480.2 143.9 490.3 143.9 490.3 93.9"/>
    <path class="st1" d="M518.7,138.6c0,1.9.2,4,1,5.2h10.1c-1.2-2.5-1.5-5.8-1.5-8.7v-14.6c0-11.2-8.1-13.3-14.7-13.3s-9.3,1.2-13.8,4.9l3.1,4.5c2.5-2.1,5.3-3.7,9.4-3.7s6,2,6.5,5.3l-8.4,2.5c-8.3,2.3-13.2,6.2-13.2,13s4.7,10.9,10.2,10.9,6.5-2.2,9.1-4.3l2.1-1.7h.1ZM518.9,123.1c.7,10.5-4.3,15.2-8.1,15.2s-4.3-2.1-4.3-5.3,2.3-6.8,7-8.2l5.3-1.7h.1Z"/>
    <path class="st1" d="M553.8,143.9l15.6-35-8.2-1.5c-3.3,8.2-6.6,16.5-9.8,26.5h0c-3-10-6.2-18.2-9.2-26.5l-9.5,1.7,14.6,34.7h6.7-.2Z"/>
    <path class="st1" d="M605.7,126.9c.7-10.7-4-19.6-15.1-19.6s-18.2,7-18.2,18.1,8.1,19.5,18.9,19.5,9.1-1.2,14.1-4l-2.7-5c-2.3,1.6-6.1,2.8-9.6,2.8-5.9,0-10.7-5-10.5-11.7h23.2-.1ZM582.7,121.8c0-4.8,2.3-9.1,7.8-9.1s6.7,3.7,6.3,9.1h-14.1Z"/>
    <path class="st1" d="M622.8,108.1h-9.4v35.8h9.5v-21.3c0-5.9,3.6-8.9,8.3-8.9s7.2,3.3,7.2,8.3v21.9h9.5v-23c0-9-4.5-13.6-12.8-13.6s-9,1.6-12.2,5v-4.2h0Z"/>
    <path class="st1" d="M203.4,26.2h4.5c5.9,0,9.3,2.9,9.3,8.1s-4.6,9.7-9.4,9.9l-4.5.3v6.1h4.6c12,0,19.3-8.3,19.3-16.8s-7-14.5-18.2-14.5h-15.7v50.1h10.1V26.2h0Z"/>
    <path class="st1" d="M247.3,70.3c11.3,0,18.8-8.1,18.8-19.2s-9.1-18.3-18.8-18.3-18.7,6.7-18.7,18.3,7.6,19.2,18.7,19.2M247.3,65.1c-6.8,0-8.6-7.6-8.6-13.9s2.1-13,8.6-13,8.7,7.1,8.7,13-1.8,13.9-8.7,13.9"/>
    <path class="st1" d="M281.1,33.7h-9.4v35.8h9.5v-17.7c0-7.8,3.2-10.4,6.5-10.4s2.9.4,4.6,1.2l3.6-6.6c-2-2-4.3-3.2-6.4-3.2s-5,2.8-6.1,4.4l-1.9,2.8h0v-6.3h-.4Z"/>
    <path class="st1" d="M311.5,23l-9.5,2.1v8.5h-5v4.9h5v20.3c0,7.3,3.4,11.5,11.3,11.5s6.6-.8,9.4-2.3l-1.6-4.8c-1.3.7-2.5,1.3-4.6,1.3-3.2,0-4.9-2.5-4.9-8.3v-17.6h9.4v-4.9h-9.4v-10.8h0Z"/>
    <path class="st1" d="M394.2,69.4v-31h8.5v-4.9h-8.5v-5.8c0-4.6,3.1-5.3,4.6-5.3s2.8.2,4.1.7l1.6-4.8c-2.5-1.3-5.2-1.6-7.5-1.6-5.3,0-12.4,3.4-12.4,12.7v4.1h-5.7v4.9h5.7v31h9.6,0Z"/>
    <path class="st1" d="M359.5,70.2c11.3,0,18.8-8.1,18.8-19.2s-9.1-18.3-18.8-18.3-18.7,6.7-18.7,18.3,7.6,19.2,18.7,19.2M359.5,65c-6.8,0-8.6-7.6-8.6-13.9s2.1-13,8.6-13,8.7,7.1,8.7,13-1.7,13.9-8.7,13.9"/>
  </g>
  <g>
    <circle class="st0" cx="80.8" cy="80.8" r="79.3"/>
    <path class="st1" d="M129.4,65.2s5.3,20.8-1.9,32.9c-6.2,10.4-35.9,14.7-80,4.5-29.1-6.7-37.1,3.3-39.2,10.9,3.8,7.9,8.9,15.3,15.4,21.8,4,4,8.4,7.5,13,10.5-.7-5.4-.6-13.8,5-18.7,8.7-7.6,29.2,1.8,51.3.5,22.1-1.3,40.9-13.7,43.6-27.1,4.4-21.8-7.2-35.3-7.2-35.3"/>
    <circle class="st2" cx="80.8" cy="80.8" r="79.3"/>
  </g>
</svg>