<?xml version="1.0" encoding="UTF-8"?>
<svg id="Layer_1" xmlns="http://www.w3.org/2000/svg" xmlns:xlink="http://www.w3.org/1999/xlink" version="1.1" viewBox="0 0 666.9 167.9">
  <!-- Generator: Adobe Illustrator 30.0.0, SVG Export Plug-In . SVG Version: 2.1.1 Build 123)  -->
  <defs>
    <style>
      .st0 {
        fill: none;
      }

      .st1 {
        isolation: isolate;
      }

      .st2 {
        fill: #fff;
      }

      .st3 {
        clip-path: url(#clippath);
      }
    </style>
    <clipPath id="clippath">
      <rect class="st0" width="166.5" height="167.9"/>
    </clipPath>
  </defs>
  <g class="st3">
    <image class="st1" width="820" height="209" transform="translate(-4.8 -.4) scale(.8)" xlink:href="Supplied Items/Port of Milford Haven_idRXi_J6rr_0.png"/>
  </g>
  <g>
    <path class="st2" d="M252.3,96.6h-11.7c-5.7,12.3-14.8,31.6-17.1,38.3h-.2c-1.9-6.4-10.2-26-15.3-38.3h-12.4v50.1h8.1v-39.1h.2c5.2,14,10.7,26.6,16,39.1h5.4c5.6-12.5,11.4-25.1,16.9-39.1h0v39.1h10.1v-50.1Z"/>
    <path class="st2" d="M262.9,146.7h9.5v-35.8h-9.5v35.8ZM267.7,106.2c3.5,0,5.7-2.9,5.7-6s-2.6-5.5-5.9-5.5-5.5,2.8-5.5,5.5,2.3,6,5.6,6"/>
    <rect class="st2" x="282.1" y="94.1" width="9.5" height="52.6"/>
    <path class="st2" d="M312.1,146.7v-31h8.5v-4.9h-8.5v-5.8c0-4.6,3.1-5.3,4.6-5.3s2.8.2,4.1.7l1.6-4.8c-2.5-1.3-5.2-1.6-7.5-1.6-5.3,0-12.4,3.4-12.4,12.7v4.1h-5.7v4.9h5.7v31h9.6Z"/>
    <path class="st2" d="M341,147.6c11.3,0,18.8-8.1,18.8-19.2s-9.1-18.3-18.8-18.3-18.7,6.7-18.7,18.3,7.6,19.2,18.7,19.2M341,142.2c-6.8,0-8.6-7.6-8.6-13.9s2.1-13,8.6-13,8.7,7.1,8.7,13-1.8,13.9-8.7,13.9"/>
    <path class="st2" d="M374.8,110.9h-9.4v35.8h9.5v-17.7c0-7.8,3.2-10.4,6.5-10.4s2.9.4,4.6,1.2l3.6-6.6c-2-2-4.3-3.2-6.4-3.2s-5,2.8-6.1,4.4l-1.9,2.8h0v-6.3h-.2Z"/>
    <path class="st2" d="M408.7,115.8c5.7,0,8.6,5.8,8.6,12s-2.7,14.1-9.1,14.1-8.2-6.7-8.2-13.7,2.5-12.4,8.6-12.4M417.4,146.7h9.5v-52.6h-9.5v21h0c-2.1-3.1-6.3-5-11-5-9.6,0-16.3,9-16.3,18.3s6.2,19.2,15.6,19.2,9.3-3,11.6-6h0v5.1h0Z"/>
    <polygon class="st2" points="491.4 96.7 481.3 96.7 481.3 115.8 460.3 115.8 460.3 96.6 450.2 96.6 450.2 146.7 460.3 146.7 460.3 122.6 481.3 122.6 481.3 146.7 491.4 146.7 491.4 96.7"/>
    <path class="st2" d="M519.8,141.4c0,1.9.2,4,1,5.2h10.1c-1.2-2.5-1.5-5.8-1.5-8.7v-14.6c0-11.2-8.1-13.3-14.7-13.3s-9.3,1.2-13.8,4.9l3.1,4.5c2.5-2.1,5.3-3.7,9.4-3.7s6,2,6.5,5.3l-8.4,2.5c-8.3,2.3-13.2,6.2-13.2,13s4.7,10.9,10.2,10.9,6.5-2.2,9.1-4.3l2.1-1.7h0ZM520,125.9c.7,10.5-4.3,15.2-8.1,15.2s-4.3-2.1-4.3-5.3,2.3-6.8,7-8.2l5.3-1.7h0Z"/>
    <path class="st2" d="M554.9,146.7l15.6-35-8.2-1.5c-3.3,8.2-6.6,16.5-9.8,26.5h0c-3-10-6.2-18.2-9.2-26.5l-9.5,1.7,14.6,34.7h6.7,0Z"/>
    <path class="st2" d="M606.8,129.7c.7-10.7-4-19.6-15.1-19.6s-18.2,7-18.2,18.1,8.1,19.5,18.9,19.5,9.1-1.2,14.1-4l-2.7-5c-2.3,1.6-6.1,2.8-9.6,2.8-5.9,0-10.7-5-10.5-11.7h23.2,0ZM583.8,124.6c0-4.8,2.3-9.1,7.8-9.1s6.7,3.7,6.3,9.1h-14.1Z"/>
    <path class="st2" d="M623.9,110.9h-9.4v35.8h9.5v-21.3c0-5.9,3.6-8.9,8.3-8.9s7.2,3.3,7.2,8.3v21.9h9.5v-23c0-9-4.5-13.6-12.8-13.6s-9,1.6-12.2,5v-4.2h0Z"/>
    <path class="st2" d="M204.5,29h4.5c5.9,0,9.3,2.9,9.3,8.1s-4.6,9.7-9.4,9.9l-4.5.3v6.1h4.6c12,0,19.3-8.3,19.3-16.8s-7-14.5-18.2-14.5h-15.7v50.1h10.1V29h0Z"/>
    <path class="st2" d="M248.4,73.1c11.3,0,18.8-8.1,18.8-19.2s-9.1-18.3-18.8-18.3-18.7,6.7-18.7,18.3,7.6,19.2,18.7,19.2M248.4,67.9c-6.8,0-8.6-7.6-8.6-13.9s2.1-13,8.6-13,8.7,7.1,8.7,13-1.8,13.9-8.7,13.9"/>
    <path class="st2" d="M282.2,36.5h-9.4v35.8h9.5v-17.7c0-7.8,3.2-10.4,6.5-10.4s2.9.4,4.6,1.2l3.6-6.6c-2-2-4.3-3.2-6.4-3.2s-5,2.8-6.1,4.4l-1.9,2.8h0v-6.3h-.2Z"/>
    <path class="st2" d="M312.6,25.8l-9.5,2.1v8.5h-5v4.9h5v20.3c0,7.3,3.4,11.5,11.3,11.5s6.6-.8,9.4-2.3l-1.6-4.8c-1.3.7-2.5,1.3-4.6,1.3-3.2,0-4.9-2.5-4.9-8.3v-17.6h9.4v-4.9h-9.4v-10.8h0Z"/>
    <path class="st2" d="M395.3,72.2v-31h8.5v-4.9h-8.5v-5.8c0-4.6,3.1-5.3,4.6-5.3s2.8.2,4.1.7l1.6-4.8c-2.5-1.3-5.2-1.6-7.5-1.6-5.3,0-12.4,3.4-12.4,12.7v4.1h-5.7v4.9h5.7v31h9.6Z"/>
    <path class="st2" d="M360.6,73c11.3,0,18.8-8.1,18.8-19.2s-9.1-18.3-18.8-18.3-18.7,6.7-18.7,18.3,7.6,19.2,18.7,19.2M360.6,67.8c-6.8,0-8.6-7.6-8.6-13.9s2.1-13,8.6-13,8.7,7.1,8.7,13-1.7,13.9-8.7,13.9"/>
  </g>
</svg>