<?xml version="1.0" encoding="UTF-8"?>
<svg id="Layer_2" data-name="Layer 2" xmlns="http://www.w3.org/2000/svg" width="293.89" height="66.77" xmlns:xlink="http://www.w3.org/1999/xlink" viewBox="0 0 293.89 66.77">
  <defs>
    <linearGradient id="linear-gradient" x1="129.17" y1="66.18" x2="176.37" y2="38.59" gradientUnits="userSpaceOnUse">
      <stop offset="0" stop-color="#596571"/>
      <stop offset=".07" stop-color="#6f7a85"/>
      <stop offset=".21" stop-color="#96a0a9"/>
      <stop offset=".35" stop-color="#b7c0c7"/>
      <stop offset=".5" stop-color="#d0d8de"/>
      <stop offset=".65" stop-color="#e1eaef"/>
      <stop offset=".81" stop-color="#ecf4f8"/>
      <stop offset="1" stop-color="#f0f8fc"/>
    </linearGradient>
  </defs>
  <g id="Layer_1-2" data-name="Layer 1">
    <g>
      <polygon points="78.51 66.77 78.51 17.44 128.45 17.44 128.45 27.96 92.19 27.96 92.19 36.1 126.58 36.1 126.58 46.62 92.19 46.62 92.19 56.25 128.07 56.25 122.02 66.77 78.51 66.77" style="fill: #f0f8fc; stroke-width: 0px;"/>
      <polygon points="199.85 59.07 199.85 17.44 213.17 17.44 213.17 66.77 199.85 59.07" style="fill: #f0f8fc; stroke-width: 0px;"/>
      <polygon points="280.64 66.77 280.64 32.12 262.33 66.77 249.55 66.77 231.24 32.12 231.24 66.77 217.92 66.77 217.92 17.44 236.01 17.44 255.94 54.78 275.87 17.44 293.89 17.44 293.89 66.77 280.64 66.77" style="fill: #f0f8fc; stroke-width: 0px;"/>
      <polygon points="73.85 66.77 73.81 55.96 29.51 55.96 73.81 17.44 13.94 17.44 1.51 28.24 44.27 28.24 0 66.77 73.85 66.77" style="fill: #effcff; stroke-width: 0px;"/>
      <g>
        <polygon points="166.13 23.01 166.13 22.14 166.13 0 127.58 66.77 149.62 51.6 166.13 23.01" style="fill: #f0f8fc; stroke-width: 0px;"/>
        <polygon points="184.75 55.26 166.13 55.26 152.15 55.26 127.58 66.77 204.68 66.77 184.75 55.26" style="fill: #f0f8fc; stroke-width: 0px;"/>
        <path d="M184.75,55.26l-57.17,11.51,24.57-11.51h32.6ZM127.58,66.77l22.04-15.16,16.51-28.59-38.55,43.76Z" style="fill: url(#linear-gradient); stroke-width: 0px;"/>
      </g>
    </g>
  </g>
</svg>