<?xml version="1.0" encoding="UTF-8"?>
<svg id="Layer_1" xmlns="http://www.w3.org/2000/svg" xmlns:xlink="http://www.w3.org/1999/xlink" version="1.1" viewBox="0 0 138 37">
  <!-- Generator: Adobe Illustrator 30.0.0, SVG Export Plug-In . SVG Version: 2.1.1 Build 123)  -->
  <defs>
    <style>
      .st0 {
        fill: url(#linear-gradient2);
      }

      .st1 {
        fill: url(#linear-gradient1);
      }

      .st2 {
        fill: url(#linear-gradient3);
      }

      .st3 {
        fill: url(#linear-gradient4);
      }

      .st4 {
        fill: url(#linear-gradient);
      }

      .st5 {
        fill: #fff;
      }
    </style>
    <linearGradient id="linear-gradient" x1="2462.2" y1="2705.7" x2="2486.5" y2="2705.7" gradientTransform="translate(-2456.7 -2689.8)" gradientUnits="userSpaceOnUse">
      <stop offset=".4" stop-color="#dcd3cd"/>
      <stop offset="1" stop-color="#7d6a55"/>
    </linearGradient>
    <linearGradient id="linear-gradient1" x1="2480.7" y1="2715.8" x2="2456.2" y2="2715.8" gradientTransform="translate(-2456.7 -2689.8)" gradientUnits="userSpaceOnUse">
      <stop offset="0" stop-color="#e1d200"/>
      <stop offset=".6" stop-color="#ee3424"/>
      <stop offset="1" stop-color="#6c217f"/>
    </linearGradient>
    <linearGradient id="linear-gradient2" x1="2457.2" y1="2697.2" x2="2491.9" y2="2697.2" gradientTransform="translate(-2456.7 -2689.8)" gradientUnits="userSpaceOnUse">
      <stop offset="0" stop-color="#e1d200"/>
      <stop offset=".6" stop-color="#ee3424"/>
      <stop offset="1" stop-color="#6c217f"/>
    </linearGradient>
    <linearGradient id="linear-gradient3" x1="2461.4" y1="2703.4" x2="2491" y2="2703.4" gradientTransform="translate(-2456.7 -2689.8)" gradientUnits="userSpaceOnUse">
      <stop offset=".4" stop-color="#dcd3cd"/>
      <stop offset="1" stop-color="#7d6a55"/>
    </linearGradient>
    <linearGradient id="linear-gradient4" x1="2457.3" y1="2705.3" x2="2492.3" y2="2705.3" gradientTransform="translate(-2456.7 -2689.8)" gradientUnits="userSpaceOnUse">
      <stop offset="0" stop-color="#e1d200"/>
      <stop offset=".6" stop-color="#ee3424"/>
      <stop offset="1" stop-color="#6c217f"/>
    </linearGradient>
  </defs>
  <g>
    <g>
      <g>
        <path class="st5" d="M48.5,33.9c0,.4,0,.8,0,1.1h-.7v-.6h0c-.2.3-.7.7-1.4.7-.9,0-1.4-.6-1.4-1.3,0-1.1,1-1.7,2.7-1.7h0c0-.5,0-1.1-1-1.1s-.8.1-1.2.3l-.2-.5c.4-.2.9-.4,1.5-.4,1.4,0,1.7.9,1.7,1.8v1.7h0ZM47.7,32.7c-.9,0-1.9.1-1.9,1s.3.8.8.8c.6,0,1-.4,1.1-.7,0,0,0-.2,0-.3v-.8Z"/>
        <path class="st5" d="M50.6,29.3c0,.3-.2.5-.5.5s-.5-.2-.5-.5.2-.5.5-.5.5.2.5.5h0ZM49.7,35v-4.5h.8v4.5h-.8Z"/>
        <path class="st5" d="M52,31.9c0-.5,0-1,0-1.4h.7v.9h0c.2-.6.7-1,1.2-1s.2,0,.2,0v.8c0,0-.2,0-.3,0-.6,0-1,.4-1.1,1,0,.1,0,.2,0,.4v2.4h-.8v-3.1h0Z"/>
        <path class="st5" d="M55.1,32c0-.6,0-1,0-1.5h.7v.8h0c.3-.5.9-.9,1.6-.9,1.1,0,1.9.9,1.9,2.3s-1,2.4-2,2.4-1.1-.3-1.4-.7h0v2.4h-.8v-4.8h0ZM55.9,33.2c0,.1,0,.2,0,.3.2.6.6,1,1.2,1,.9,0,1.3-.7,1.3-1.7s-.5-1.7-1.3-1.7-1.1.4-1.2,1c0,0,0,.2,0,.3v.8h0Z"/>
        <path class="st5" d="M64.3,32.7c0,1.7-1.1,2.4-2.2,2.4s-2.1-.9-2.1-2.3,1-2.4,2.2-2.4,2.2.9,2.2,2.3ZM60.7,32.8c0,1,.6,1.7,1.3,1.7s1.4-.7,1.4-1.7-.4-1.7-1.3-1.7-1.4.9-1.4,1.7h0Z"/>
        <path class="st5" d="M65.2,31.9c0-.5,0-1,0-1.4h.7v.9h0c.2-.6.7-1,1.2-1s.2,0,.2,0v.8c0,0-.2,0-.3,0-.6,0-1,.4-1.1,1,0,.1,0,.2,0,.4v2.4h-.8v-3.1h0Z"/>
        <path class="st5" d="M69.6,29.5v1.1h1.2v.6h-1.2v2.4c0,.5.2.9.6.9s.3,0,.5,0v.6c-.1,0-.4.1-.7.1s-.7-.1-.9-.3c-.2-.2-.3-.6-.3-1.2v-2.4h-.7v-.6h.7v-.8l.8-.2h0Z"/>
      </g>
      <g>
        <path class="st5" d="M77.5,34.3c0,1-.2,1.7-.6,2-.4.4-1.1.5-1.6.5s-1.1-.1-1.5-.4l.2-.6c.3.2.8.4,1.3.4.8,0,1.4-.4,1.4-1.6v-.5h0c-.2.4-.7.7-1.4.7-1.1,0-1.9-.9-1.9-2.2s1-2.4,2-2.4,1.2.4,1.4.8h0v-.7h.8c0,.3,0,.7,0,1.2v2.6h0ZM76.7,32.3c0-.1,0-.3,0-.4-.2-.5-.5-.9-1.1-.9s-1.3.7-1.3,1.7.4,1.6,1.3,1.6.9-.3,1.1-.8c0-.1,0-.3,0-.4v-.8h0Z"/>
        <path class="st5" d="M78.8,31.9c0-.5,0-1,0-1.4h.7v.9h0c.2-.6.7-1,1.2-1s.2,0,.2,0v.8c0,0-.2,0-.3,0-.6,0-1,.4-1.1,1,0,.1,0,.2,0,.4v2.4h-.8v-3.1h0Z"/>
        <path class="st5" d="M85.8,32.7c0,1.7-1.1,2.4-2.2,2.4s-2.1-.9-2.1-2.3,1-2.4,2.2-2.4,2.2.9,2.2,2.3h0ZM82.2,32.8c0,1,.6,1.7,1.3,1.7s1.3-.7,1.3-1.7-.4-1.7-1.3-1.7-1.4.9-1.4,1.7h0Z"/>
        <path class="st5" d="M90.4,33.8c0,.5,0,.9,0,1.2h-.7v-.7h0c-.2.4-.7.8-1.5.8s-1.5-.4-1.5-2v-2.6h.8v2.5c0,.8.3,1.4,1,1.4s.9-.4,1.1-.7c0-.1,0-.3,0-.4v-2.7h.8v3.2h0Z"/>
        <path class="st5" d="M91.6,32c0-.6,0-1,0-1.5h.7v.8h0c.3-.5.9-.9,1.6-.9,1.1,0,1.9.9,1.9,2.3s-1,2.4-2,2.4-1.1-.3-1.4-.7h0v2.4h-.8v-4.8h0ZM92.4,33.2c0,.1,0,.2,0,.3.2.6.6,1,1.2,1,.9,0,1.4-.7,1.4-1.7s-.5-1.7-1.3-1.7-1.1.4-1.2,1c0,0,0,.2,0,.3v.8h0Z"/>
      </g>
    </g>
    <g>
      <path class="st5" d="M137.1,11.2h0c-.8.6-1.7,1.1-2.6,1.6h0c-.1,0-.2.2-.2.4v11.7h3.3v-13.4c0-.7-.4-.3-.4-.3h0Z"/>
      <path class="st5" d="M57.1,18.9h0c-1.4,2.4-3,3.4-5.1,3.4s-5.2-2.1-5.2-5,2.2-5,5.2-5c2,0,3.6.9,4.7,2.8h0c0,.1,2.7-1.6,2.7-1.6h-.1c-1.8-2.7-4.4-4-7.4-4-4.9,0-8.5,3.3-8.5,7.8,0,4.5,3.6,7.8,8.5,7.8h0c3.3,0,6-1.5,7.7-4.4h0c0-.1-2.6-1.9-2.6-1.9h0Z"/>
      <polygon class="st5" points="73.1 9.9 73.1 15.3 73.1 15.3 65.5 15.3 65.5 15.3 65.5 15.3 65.5 9.9 62.2 9.9 62.2 24.8 65.5 24.8 65.5 18.1 73.1 18.1 73.1 24.8 76.3 24.8 76.3 9.9 73.1 9.9"/>
      <path class="st5" d="M95.8,24.6l-7.6-14.7h-2.3l-7.7,15h3.4l1.9-3.7h0s7.1,0,7.1,0l1.9,3.7h3.4v-.2c-.1,0-.1,0-.1,0ZM87,14.2h0s2.1,4.1,2.1,4.1h0s-4.2,0-4.2,0h0s2.1-4.1,2.1-4.1h0s0,0,0,0Z"/>
      <polygon class="st5" points="108.6 9.9 108.6 19.1 108.6 19 99.8 9.9 97.8 9.9 97.8 24.8 101 24.8 101 15.6 101.1 15.6 109.9 24.8 111.8 24.8 111.8 9.9 108.6 9.9"/>
      <path class="st5" d="M123.5,19.3h4.1v1h0c-1.1,1.4-2.4,2-4.3,2-3,0-5.2-2.1-5.2-5,0-2.9,2.2-5,5.2-5s3.6.9,4.7,2.8h0c0,.1,2.7-1.6,2.7-1.6h-.1c-1.9-2.7-4.4-4-7.4-4-4.9,0-8.5,3.3-8.5,7.8s3.6,7.8,8.5,7.8h0c3.2,0,5.8-1.4,7.5-3.9h0v-4.8h-7.4v2.8h0Z"/>
    </g>
  </g>
  <g>
    <path class="st4" d="M5.8,4.9c.7-3.4,4.8-3,4.8-3h0c4.8.4,9,6,11.3,9.6,3.6,5.6,6,12.3,6.1,19,0,.1.1.1.2.1.1-.1.3-.2.5-.3h0c.2-.1.4-.3.6-.4.1-.1.2-.2.4-.3,0,0,.1-.2.1-.4-.2-7.3-2.4-14.6-7-20.3-2.2-2.8-6.4-6.8-10.5-7.6h0S7.7.2,5.4,4.1l.4.8"/>
    <path class="st1" d="M.6,18.4c1.1,8.7,8.5,15.4,17.5,15.4s4.7-.5,6.8-1.4c.3-.1.2-.2.1-.2-10.9.2-20.5-6.6-24.4-14.1-.1-.1-.1.1-.1.3h0Z"/>
    <path class="st0" d="M35.2,11.5c0,0,0-.1,0-.2,0-.3-.4-1.2-.7-1.8C29.1-1.5,15.2-2.3,6.7,4.2h0s-2.2,1.6-3.6,3.7c-1.5,2.1-2.1,4.1-2.4,5.2-.2.8-.2,1.3-.2,1.5h0c0,.1,0,.1,0,.2.1,0,.4,0,.6-.2.1,0,.6-.3,1-.5,1.3-.6,2.9-1.1,4.4-1.4,0-.1-.2-.3-.3-.4-.6-1-1.1-2.1-1.4-3.1-1.1.7-2.2,1.6-3.2,2.6,4.3-9.7,23.6-16.2,33.3,0h0c0,.1.2.1.2,0s0-.1,0-.2h0Z"/>
    <path class="st2" d="M16.5,17c-2.9-1.7-6-3.4-8.2-5.9-1.6-1.7-2.8-4.1-2.5-6.5.2-1,1.1-2.1,2.4-2.5h0c-.7.2-1.3.5-2,.9,0,0-.2.2-.3.3-2,2.5-1.4,6.1.4,8.8,2.1,3.2,5.8,5.8,9.1,7.7,3.5,2,7.3,3.5,11.3,4.5,1.9.5,3.5.5,5.4.7.3,0,.6,0,.8,0,.3,0,.5-.1.6-.3,0-.1.2-.4.2-.4,0-.1.4-.8.5-1.1-6.3-.3-12.4-3-17.8-6.1h0Z"/>
    <path class="st3" d="M35.8,16c0-.4-.3-1.1-.8-1.7C28.9,7.6,16.1,3.1,6.4,8.2c.5,1.1,1.2,2.1,1.9,2.9.3.4.7.7,1,1,9.3-1,20.6,2.4,24,12.8,0,0,.2-.1.2-.2,1.4-2.5,2.2-5.4,2.2-8.5v-.2h0Z"/>
  </g>
</svg>