<svg xmlns:xlink="http://www.w3.org/1999/xlink" xmlns:inkscape="http://www.inkscape.org/namespaces/inkscape" xmlns:sodipodi="http://sodipodi.sourceforge.net/DTD/sodipodi-0.dtd" xmlns="http://www.w3.org/2000/svg" xmlns:svg="http://www.w3.org/2000/svg" version="1.1" id="svg2" xml:space="preserve" width="3193.9333" height="291.74667" viewBox="0 0 3193.9333 291.74667" sodipodi:docname="logo_hatloy_negativ_oranjse_emblem.eps">
  <defs id="defs6"/>
  <g id="g8" inkscape:groupmode="layer" inkscape:label="ink_ext_XXXXXX" transform="matrix(1.3333333,0,0,-1.3333333,0,291.74667)">
    <g id="g10" transform="scale(0.1)">
      <path d="m 0,2188.12 h 522.52 v -591.73 h 570.95 v 591.73 H 1618.3 V 497.129 H 1093.47 V 1181.13 H 522.52 V 497.129 H 0 V 2188.12" style="fill:#ffffff;fill-opacity:1;fill-rule:nonzero;stroke:none" id="path12"/>
      <path d="m 2769.46,1078.49 c -64.61,-23.08 -131.9,-43.46 -201.86,-61.13 -95.36,-25.38 -155.72,-50.391 -181.09,-74.981 -26.17,-25.367 -39.22,-54.199 -39.22,-86.52 0,-36.91 12.87,-67.089 38.63,-90.531 25.75,-23.476 63.62,-35.18 113.63,-35.18 52.27,0 100.91,12.68 145.9,38.051 45,25.379 76.89,56.332 95.74,92.86 18.84,36.511 28.27,84.011 28.27,142.441 z m -407.18,246.83 -448.71,47.29 c 16.92,78.43 41.34,140.16 73.27,185.13 31.89,45 77.85,84.01 137.83,117.1 43.05,23.79 102.25,42.26 177.64,55.35 75.33,13.05 156.86,19.6 244.51,19.6 140.73,0 253.78,-7.9 339.12,-23.64 85.36,-15.78 156.49,-48.65 213.4,-98.62 39.98,-34.62 71.52,-83.62 94.58,-147.08 23.06,-63.42 34.61,-123.99 34.61,-181.65 V 757.82 c 0,-57.679 3.63,-102.851 10.95,-135.511 7.31,-32.719 23.26,-74.411 47.88,-125.18 h -440.63 c -17.7,31.519 -29.23,55.543 -34.6,72.082 -5.39,16.551 -10.78,42.488 -16.15,77.891 -61.53,-59.243 -122.66,-101.5 -183.4,-126.891 -83.05,-33.82 -179.55,-50.762 -289.52,-50.762 -146.12,0 -257.04,33.84 -332.77,101.512 -75.74,67.668 -113.61,151.117 -113.61,250.301 0,93.019 27.28,169.558 81.89,229.528 54.6,59.99 155.3,104.57 302.21,133.82 176.08,35.36 290.27,60.15 342.58,74.39 52.28,14.23 107.63,32.87 166.1,55.93 0,57.68 -11.95,98.06 -35.78,121.14 -23.83,23.05 -65.73,34.58 -125.72,34.58 -76.89,0 -134.57,-12.31 -173.02,-36.89 -29.99,-19.25 -54.22,-55.39 -72.66,-108.44" style="fill:#ffffff;fill-opacity:1;fill-rule:nonzero;stroke:none" id="path14"/>
      <path d="m 4035.95,2188.12 v -466.01 h 258.38 V 1378.38 H 4035.95 V 944.391 c 0,-52.172 5,-86.731 14.99,-103.59 15.38,-26.09 42.29,-39.16 80.74,-39.16 34.61,0 83.05,9.988 145.35,29.949 l 34.59,-324.07 c -116.12,-25.379 -224.55,-38.071 -325.27,-38.071 -116.9,0 -203.01,14.992 -258.38,44.922 -55.35,29.981 -96.31,75.469 -122.83,136.527 -26.54,61.063 -39.8,159.942 -39.8,296.633 v 430.849 h -173.01 v 343.73 h 173.01 v 224.93 l 470.61,241.08" style="fill:#ffffff;fill-opacity:1;fill-rule:nonzero;stroke:none" id="path16"/>
      <path d="m 4534.24,2188.12 h 470.61 V 497.129 H 4534.24 V 2188.12" style="fill:#ffffff;fill-opacity:1;fill-rule:nonzero;stroke:none" id="path18"/>
      <path d="m 5790.21,809.75 c 25.45,-20.43 46.26,-33.789 62.49,-40.059 30.83,-10.992 64.77,-16.472 101.81,-16.472 75.58,0 137.86,29.781 186.84,89.422 48.98,59.629 73.47,153.308 73.47,280.999 0,39.22 -6.63,84.22 -19.87,135.02 z m 319.1,593.36 c -21.53,20.59 -39.95,33.9 -55.3,40.04 -29.95,12.17 -63.76,18.28 -101.38,18.28 -77.57,0 -141.5,-29.81 -191.79,-89.35 -50.32,-59.55 -75.45,-150.42 -75.45,-272.61 0,-40.72 6.41,-89.14 19.25,-145.24 z m 383.64,427.3 119.81,-108.3 -142.16,-157.65 c 52.82,-44.57 96.43,-107.6 130.87,-189.03 34.43,-81.48 51.67,-169.84 51.67,-265.12 0,-187.501 -61.9,-341.169 -185.65,-461.048 -123.79,-119.883 -292.15,-179.813 -505.05,-179.813 -86.87,0 -163.37,7.301 -229.48,21.86 -45.35,9.941 -102.64,31.402 -171.81,64.339 L 5407.46,385.191 5286.3,497.129 5432.29,653.301 c -65.21,69.961 -112.37,140.277 -141.52,210.988 -29.13,70.731 -43.68,150.671 -43.68,239.841 0,188.3 62.6,343 187.83,464.07 125.22,121.05 293.46,181.6 504.72,181.6 86.03,0 162.85,-8 230.44,-23.99 45.32,-10.66 101.42,-32.71 168.25,-66.18 l 154.62,170.78" style="fill:#ffffff;fill-opacity:1;fill-rule:nonzero;stroke:none" id="path20"/>
      <path d="m 6745.42,1722.11 h 495.36 l 252.66,-815.489 234.63,815.489 H 8190.7 L 7704.69,413.25 C 7649.34,263.941 7592.86,163.16 7535.21,110.809 7453.74,36.9609 7329.59,0 7162.81,0 7095.15,0 6990.63,9.21875 6849.18,27.6719 L 6812.31,355.25 c 67.62,-21.5 142.91,-32.281 225.88,-32.281 55.33,0 100.05,12.691 134.26,38.09 34.2,25.453 63.19,70.863 87.02,136.293 L 6745.42,1722.11" style="fill:#ffffff;fill-opacity:1;fill-rule:nonzero;stroke:none" id="path22"/>
      <path d="m 9136.52,2188.12 h 687.18 l 265,-1028.9 263.1,1028.9 h 686.8 V 497.129 h -427.9 V 1786.72 L 10280.9,497.129 H 9893.58 L 9564.47,1786.72 V 497.129 H 9136.52 V 2188.12" style="fill:#ffffff;fill-opacity:1;fill-rule:nonzero;stroke:none" id="path24"/>
      <path d="m 12175.9,1078.49 c -64.6,-23.08 -131.9,-43.46 -201.8,-61.13 -95.4,-25.38 -155.8,-50.391 -181.2,-74.981 -26.1,-25.367 -39.2,-54.199 -39.2,-86.52 0,-36.91 12.9,-67.089 38.7,-90.531 25.7,-23.476 63.6,-35.18 113.6,-35.18 52.3,0 100.9,12.68 145.9,38.051 45,25.379 76.9,56.332 95.7,92.86 18.9,36.511 28.3,84.011 28.3,142.441 z m -407.2,246.83 -448.7,47.29 c 16.9,78.43 41.3,140.16 73.3,185.13 31.9,45 77.8,84.01 137.8,117.1 43.1,23.79 102.3,42.26 177.6,55.35 75.4,13.05 156.9,19.6 244.6,19.6 140.7,0 253.7,-7.9 339.1,-23.64 85.4,-15.78 156.5,-48.65 213.4,-98.62 40,-34.62 71.5,-83.62 94.6,-147.08 23,-63.42 34.6,-123.99 34.6,-181.65 V 757.82 c 0,-57.679 3.6,-102.851 10.9,-135.511 7.3,-32.719 23.3,-74.411 47.9,-125.18 h -440.6 c -17.7,31.519 -29.3,55.543 -34.6,72.082 -5.4,16.551 -10.8,42.488 -16.2,77.891 -61.5,-59.243 -122.6,-101.5 -183.4,-126.891 -83,-33.82 -179.5,-50.762 -289.5,-50.762 -146.1,0 -257,33.84 -332.8,101.512 -75.7,67.668 -113.6,151.117 -113.6,250.301 0,93.019 27.3,169.558 81.9,229.528 54.6,59.99 155.3,104.57 302.2,133.82 176.1,35.36 290.3,60.15 342.6,74.39 52.3,14.23 107.6,32.87 166.1,55.93 0,57.68 -11.9,98.06 -35.8,121.14 -23.8,23.05 -65.7,34.58 -125.7,34.58 -76.9,0 -134.6,-12.31 -173,-36.89 -30,-19.25 -54.2,-55.39 -72.7,-108.44" style="fill:#ffffff;fill-opacity:1;fill-rule:nonzero;stroke:none" id="path26"/>
      <path d="m 12921,1722.11 h 439.5 v -200.7 c 42.3,86.88 85.9,146.67 130.9,179.36 45,32.69 100.5,49.02 166.7,49.02 69.2,0 144.9,-21.54 227.2,-64.59 L 13740,1350.71 c -55.4,23.06 -99.2,34.59 -131.5,34.59 -61.5,0 -109.2,-25.37 -143,-76.12 -48.5,-71.54 -72.7,-205.32 -72.7,-401.41 V 497.129 H 12921 V 1722.11" style="fill:#ffffff;fill-opacity:1;fill-rule:nonzero;stroke:none" id="path28"/>
      <path d="m 13982.2,1722.11 h 469.5 V 497.129 h -469.5 z m 0,466.01 h 469.5 v -319.53 h -469.5 v 319.53" style="fill:#ffffff;fill-opacity:1;fill-rule:nonzero;stroke:none" id="path30"/>
      <path d="m 15317.9,2188.12 v -466.01 h 258.4 v -343.73 h -258.4 V 944.391 c 0,-52.172 5,-86.731 15,-103.59 15.4,-26.09 42.3,-39.16 80.7,-39.16 34.6,0 83.1,9.988 145.4,29.949 l 34.6,-324.07 c -116.1,-25.379 -224.6,-38.071 -325.3,-38.071 -116.9,0 -203,14.992 -258.4,44.922 -55.3,29.981 -96.3,75.469 -122.8,136.527 -26.5,61.063 -39.8,159.942 -39.8,296.633 v 430.849 h -173 v 343.73 h 173 v 224.93 l 470.6,241.08" style="fill:#ffffff;fill-opacity:1;fill-rule:nonzero;stroke:none" id="path32"/>
      <path d="m 15817.4,1722.11 h 469.4 V 497.129 h -469.4 z m 0,466.01 h 469.4 v -319.53 h -469.4 v 319.53" style="fill:#ffffff;fill-opacity:1;fill-rule:nonzero;stroke:none" id="path34"/>
      <path d="m 16590.2,1722.11 h 438.3 v -178.78 c 63.1,74.56 126.8,127.62 191.2,159.15 64.3,31.56 141.8,47.31 232.7,47.31 97.8,0 175.2,-17.29 232.2,-51.91 57,-34.61 103.6,-86.13 139.8,-154.55 73.7,79.96 140.9,134.37 201.6,163.21 60.6,28.83 135.5,43.25 224.6,43.25 131.3,0 233.8,-39.02 307.5,-117.08 73.7,-78.05 110.6,-200.12 110.6,-366.22 V 497.129 h -470.6 v 697.861 c 0,55.35 -10.7,96.46 -32.2,123.41 -31.4,42.28 -70.5,63.46 -117.2,63.46 -55.2,0 -99.7,-20.03 -133.4,-59.98 -33.7,-40 -50.6,-104.22 -50.6,-192.64 V 497.129 h -470.6 v 674.781 c 0,53.81 -3.1,90.36 -9.2,109.57 -10.1,30.74 -27.4,55.56 -52.1,74.4 -24.7,18.85 -53.7,28.28 -86.8,28.28 -54,0 -98.4,-20.4 -133.1,-61.16 -34.8,-40.75 -52.1,-107.64 -52.1,-200.68 V 497.129 h -470.6 V 1722.11" style="fill:#ffffff;fill-opacity:1;fill-rule:nonzero;stroke:none" id="path36"/>
      <path d="m 19831.4,1218.06 c -9.2,90.71 -33.6,155.72 -73.3,194.93 -39.6,39.22 -91.6,58.82 -156.2,58.82 -74.6,0 -134.3,-29.61 -178.8,-88.83 -28.6,-36.89 -46.6,-91.88 -54.3,-164.92 z m 477.4,-224.931 h -941.1 c 8.4,-75.367 28.9,-131.488 61.2,-168.41 45.3,-53.039 104.4,-79.578 177.5,-79.578 46.2,0 90,11.539 131.5,34.597 25.5,14.614 52.7,40.383 82,77.301 l 462.4,-42.711 c -70.6,-123.027 -156,-211.269 -256,-264.699 -99.9,-53.438 -243.4,-80.18 -430.2,-80.18 -162.3,0 -290,22.891 -383,68.629 -93,45.75 -170.1,118.422 -231.2,218.012 -61.2,99.582 -91.8,216.66 -91.8,351.23 0,191.48 61.4,346.43 184,464.85 122.7,118.39 292.1,177.63 508.1,177.63 175.4,0 313.8,-26.54 415.2,-79.6 101.6,-53.05 178.8,-129.95 232,-230.69 52.9,-100.74 79.4,-231.84 79.4,-393.32 v -53.061" style="fill:#ffffff;fill-opacity:1;fill-rule:nonzero;stroke:none" id="path38"/>
      <path d="m 19790.8,1946.74 25.6,1.07 26.3,1.11 25.5,0.39 25.6,-0.32 25.7,-0.3 25.7,-0.99 25,-1.07 25.7,-1.69 25.2,-2.43 25.2,-2.42 25.1,-3.12 25.2,-3.11 24.6,-3.89 24.6,-4.55 24.6,-4.54 24,-5.32 24.3,-5.97 24,-6.01 23.5,-6.74 23.5,-6.76 23.4,-7.42 23,-8.17 22.3,-8.92 22.4,-8.94 22.1,-8.92 21.8,-9.7 21,-10.44 21.3,-11.1 21,-11.12 19.7,-11.94 19.9,-11.95 19.9,-12.64 18.6,-13.41 18.8,-14.12 18.4,-14.12 17.3,-14.26 17.6,-15.63 16.6,-15.7 16.1,-15.75 16.2,-16.44 14.6,-17.28 14.9,-17.95 14.2,-17.99 13.6,-18.77 12.9,-19.51 12.2,-19.57 11.7,-20.36 11.6,-20.32 10.3,-21.15 9.8,-21.9 9.2,-22.65 8.3,-22.71 8.4,-23.4 6.4,-23.61 6.6,-24.28 5.8,-25.04 5.3,-25.78 3.9,-25.92 3.2,-26.67 2.4,-26.75 2.1,-27.49 0.6,-28.29 0.7,-28.98 -0.5,-29.13 -1.7,-27.12 -3,-27.29 -2.8,-26.55 -3.8,-25.258 -5.3,-26.113 -6,-24.77 -6.3,-24.16 -6.8,-24.188 -8.3,-23.582 -8.8,-23.007 -9.6,-22.352 -10.3,-22.449 -10.9,-21.821 -11.3,-21.128 -12.4,-20.571 -12.6,-20.562 -13.3,-19.969 -14.1,-19.34 -14.8,-18.691 -15.6,-18.801 -15.6,-18.098 -16.3,-17.492 -16.9,-17.519 -17.1,-16.188 -17.9,-16.902 -17.8,-15.559 -18.6,-15.621 -19.2,-15.008 -19.3,-14.992 -20.1,-13.687 -20.1,-14.372 -20.8,-13.07 -21.1,-13.09 -21.6,-12.449 -20.8,-12.383 -22.6,-11.828 -21.7,-11.082 -22.4,-11.137 -22.5,-11.152 -23.3,-9.848 -22.6,-9.781 -23.3,-9.82 -23.2,-9.168 -23.5,-8.473 -24.1,-8.527 -23.4,-7.793 -24.3,-7.18 -23.4,-7.769 -24.3,-6.481 -24.2,-6.461 -23.7,-6.418 -24.4,-5.808 -23.6,-5.032 -24.5,-5.128 -23.8,-4.364 -23.7,-4.347 -23.8,-4.34 -23.9,-3.68 -24,-3.012 -23.1,-3.589 -69.3,-6.641 -22.6,-1.488 63,6.75 64.2,8.218 64.2,8.27 64.8,8.973 65.6,10.429 66.1,10.481 65.9,11.168 66.7,11.929 67.4,12.68 67,13.352 67.8,14.121 67.8,14.797 68.4,15.55 68.6,15.551 68.7,16.981 68.9,17 69,17.668 69.5,18.41 69.4,18.422 70.3,19.89 69.3,19.778 69.9,20.55 70,20.563 69.9,21.226 70.6,21.993 69.7,22.589 69.8,22.598 70.5,23.363 69.5,23.969 69.6,23.981 70.5,24.718 69.5,24.68 69.6,25.332 68.8,25.277 69.5,26.051 68.5,26.629 68.8,26.641 68.7,27.34 68,27.293 67.8,27.269 68,27.949 67,28.58 67.3,27.87 66.3,29.21 65.7,28.44 65.7,29.12 65.8,29.83 64.8,29.75 64.4,29.67 63.7,29.64 63.3,30.28 62.9,30.24 62.1,30.18 61.4,30.8 60.7,30.72 60.7,30.71 59.3,30.62 59.4,31.27 58.6,30.54 57.1,31.08 57.3,31.08 55.7,31.63 55.1,30.9 55.2,30.87 -65.7,15.14 -65,14.54 -65.2,14.5 -64.8,13.84 -65,13.84 -65,12.47 -65.5,13.07 -64.8,12.45 -64.8,11.78 -64.8,11.1 -64.6,11.1 -64.8,11.1 -65.4,10.31 -64.6,9.73 -64.4,9.73 -64.6,9.71 -64.4,9.05 -65.2,8.28 -64.6,8.34 -64.2,7.67 -65.2,7.58 -64.4,6.99 -65,6.91 -64.1,6.29 -64.9,6.24 -64.3,5.6 -64.8,5.56 -64.8,4.84 -65,4.85 -64,4.22 -64.6,4.21 -64.8,3.47 -64.6,3.5 -64.6,2.78 -65.4,2.74 -64.6,2.78 -64.6,2.12 -65.2,1.35 -64.2,1.45 -65.2,1.37 -64.4,0.73 -65.2,0.68 -65.1,0.68 -65,-0.7 -65,-0.02 -65,-0.69 -65.7,-0.75 -64.8,-1.39 -65.6,-1.43 -64.8,-2.07 -65.5,-2.14 -65.6,-2.14 -65.5,-2.82 -65.3,-2.8 -65.4,-3.49 -66.3,-2.89 -65.2,-4.19 -66.1,-3.59 -132,-9.16 -131.9,-9.9 -132.6,-10.63" style="fill:#f46e18;fill-opacity:1;fill-rule:nonzero;stroke:none" id="path40"/>
    </g>
  </g>
</svg>